# xmcd CD database generated by RipIT
#
# Track frame offsets:
# 150
# 14159
# 32127
# 50139
# 63262
# 76876
# 91280
# 112253
# 135234
# 156024
# 183063
#
# Disc length: 2719 seconds
#
# Revision: 0
# Processed by: cddbd v1.5.2PL0 Copyright (c) Steve Scherf et al.
# Submitted via: RipIT 3.9.0 www.suwald.com/ripit/ripit.html on 2015-03-10 at 21:07
#
DISCID=8b0a9d0b
DTITLE=Fictionplane - Sparks
DYEAR=2010
DGENRE=Rock
TTITLE0=You_Know_You're_Good_(La_La_La_Song)
TTITLE1=Out_Of_My_Face
TTITLE2=Push_Me_Around
TTITLE3=Talking
TTITLE4=Revenge
TTITLE5=Two_Sparks
TTITLE6=Tommy
TTITLE7=Humanoid
TTITLE8=Zero
TTITLE9=Russian_LSD
TTITLE10=Denied
EXTD=
EXTT0=
EXTT1=
EXTT2=
EXTT3=
EXTT4=
EXTT5=
EXTT6=
EXTT7=
EXTT8=
EXTT9=
EXTT10=
PLAYORDER=
